<svg data-v-fde0c5aa="" xmlns="http://www.w3.org/2000/svg" viewBox="0 0 300 300" class="iconLeftSlogan"><!----><defs data-v-fde0c5aa=""><!----></defs><rect data-v-fde0c5aa="" fill="transparent" x="0" y="0" width="300px" height="300px" class="logo-background-square"></rect><defs data-v-fde0c5aa=""><!----></defs><g data-v-fde0c5aa="" id="5c0ccd85-307f-4003-883e-043ebc22cfc6" fill="#000000" transform="matrix(2.3807664770393795,0,0,2.3807664770393795,100.25056575080107,109.50238043011619)"><path d="M6.15 10.96Q6.64 10.96 6.86 11.25Q7.08 11.54 7.14 11.92Q7.20 12.31 7.20 12.91L7.20 12.91L7.20 16.80Q7.20 16.97 7.30 17.12Q7.41 17.26 7.56 17.26L7.56 17.26Q7.77 17.26 7.93 17.13Q8.09 17.00 8.27 16.77L8.27 16.77L8.51 17.04Q8.26 17.53 7.82 17.86Q7.38 18.19 6.87 18.19L6.87 18.19Q6.20 18.19 5.87 17.80Q5.53 17.42 5.53 16.72L5.53 16.72L5.53 13.05Q5.53 12.85 5.49 12.71Q5.45 12.57 5.29 12.57L5.29 12.57Q4.82 12.57 4.33 13.59Q3.84 14.60 3.50 15.92Q3.16 17.23 3.16 17.91L3.16 17.91L1.53 18.27L1.53 12.39Q1.53 12.18 1.43 12.04Q1.33 11.90 1.15 11.90L1.15 11.90Q0.95 11.90 0.76 12.06Q0.57 12.22 0.45 12.43L0.45 12.43L0.20 12.15Q0.41 11.66 0.85 11.31Q1.30 10.96 1.82 10.96L1.82 10.96Q2.52 10.96 2.84 11.35Q3.16 11.73 3.16 12.42L3.16 12.42L3.16 15.12L3.22 15.12Q3.60 13.57 4.35 12.26Q5.10 10.96 6.15 10.96L6.15 10.96ZM13.37 10.96Q14.18 10.96 14.73 11.38Q15.27 11.79 15.27 12.57L15.27 12.57Q15.27 13.20 14.60 13.98Q13.92 14.76 12.98 15.42Q12.05 16.09 11.40 16.38L11.40 16.38Q11.98 17.32 13.12 17.32L13.12 17.32Q13.75 17.32 14.39 16.96Q15.02 16.60 15.47 16.02L15.47 16.02L15.75 16.35Q15.02 17.26 14.22 17.76Q13.41 18.26 12.31 18.26L12.31 18.26Q11.41 18.26 10.70 17.85Q10.00 17.44 9.60 16.74Q9.20 16.03 9.20 15.15L9.20 15.15Q9.20 14.08 9.78 13.11Q10.36 12.14 11.33 11.55Q12.29 10.96 13.37 10.96L13.37 10.96ZM12.57 11.87Q12.04 11.87 11.62 12.26Q11.20 12.64 10.96 13.24Q10.72 13.85 10.72 14.49L10.72 14.49Q10.72 15.33 11.09 15.93L11.09 15.93Q11.61 15.64 12.19 15.11Q12.77 14.59 13.16 13.99Q13.55 13.38 13.55 12.89L13.55 12.89Q13.55 12.40 13.29 12.14Q13.03 11.87 12.57 11.87L12.57 11.87ZM23.16 10.91L23.16 16.79Q23.16 17.00 23.25 17.13Q23.35 17.26 23.53 17.26L23.53 17.26Q23.81 17.26 24.22 16.79L24.22 16.79L24.46 17.04Q24.11 17.75 23.59 17.97Q23.07 18.19 22.81 18.19L22.81 18.19Q22.29 18.19 22.02 17.95Q21.74 17.71 21.62 17.16Q21.50 16.60 21.50 15.60L21.50 15.60L21.50 15.18L21.45 14.21L21.39 14.21Q21.06 15.71 20.39 16.98Q19.73 18.26 18.65 18.26L18.65 18.26Q18.17 18.26 17.94 18.03Q17.71 17.79 17.65 17.40Q17.58 17.01 17.58 16.32L17.58 16.32L17.58 12.43Q17.58 12.19 17.49 12.06Q17.39 11.93 17.22 11.93L17.22 11.93Q16.88 11.93 16.51 12.43L16.51 12.43L16.27 12.17Q16.51 11.65 16.87 11.38Q17.23 11.12 17.51 11.05Q17.78 10.98 17.86 10.98L17.86 10.98Q18.62 10.98 18.94 11.39Q19.26 11.80 19.26 12.43L19.26 12.43L19.26 16.17Q19.26 16.42 19.33 16.56Q19.39 16.70 19.49 16.70L19.49 16.70Q19.99 16.70 20.43 15.69Q20.86 14.67 21.13 13.38Q21.39 12.08 21.39 11.49L21.39 11.49L23.16 10.91ZM28.41 12.98Q27.82 13.64 27.39 14.62Q26.96 15.61 26.96 16.42L26.96 16.42Q26.96 17.21 27.38 17.72Q27.80 18.23 28.57 18.23L28.57 18.23Q29.19 18.23 29.76 17.92Q30.32 17.61 30.73 17.09L30.73 17.09L30.52 16.84Q30.04 17.15 29.62 17.15L29.62 17.15Q28.99 17.15 28.66 16.72Q28.34 16.28 28.34 15.64L28.34 15.64Q28.34 14.59 28.91 13.55Q29.48 12.52 30.30 11.76L30.30 11.76L30.04 11.49Q29.11 12.11 28.25 12.11L28.25 12.11Q27.71 12.11 27.27 11.68Q26.82 11.26 26.67 10.68L26.67 10.68L25.33 12.19Q25.38 12.39 25.61 12.59Q25.83 12.78 25.87 12.82L25.87 12.82L24.93 14.76L25.51 15.01L26.42 13.06Q26.78 13.20 27.22 13.20L27.22 13.20Q27.89 13.20 28.36 12.92L28.36 12.92L28.41 12.98ZM34.89 10.93L35.15 11.26Q34.23 11.91 33.70 12.75Q33.18 13.58 33.18 14.70L33.18 14.70Q33.18 15.32 33.42 15.95Q33.66 16.58 34.12 16.99Q34.58 17.40 35.22 17.40L35.22 17.40Q36.04 17.40 36.53 16.81Q37.03 16.23 37.03 15.36L37.03 15.36Q37.03 14.70 36.69 14.02Q36.34 13.34 35.77 12.87Q35.20 12.40 34.54 12.35L34.54 12.35Q34.83 12.03 35.17 11.76Q35.52 11.49 36.04 11.12L36.04 11.12Q37.04 11.45 37.64 12.36Q38.23 13.27 38.23 14.36L38.23 14.36Q38.23 15.33 37.81 16.24Q37.38 17.15 36.58 17.72Q35.77 18.28 34.71 18.28L34.71 18.28Q33.82 18.28 33.09 17.87Q32.35 17.46 31.92 16.74Q31.49 16.02 31.49 15.15L31.49 15.15Q31.49 13.65 32.43 12.52Q33.38 11.38 34.89 10.93L34.89 10.93ZM44.91 10.96Q45.40 10.96 45.63 11.25Q45.85 11.54 45.91 11.92Q45.96 12.31 45.96 12.91L45.96 12.91L45.96 16.80Q45.96 16.97 46.07 17.12Q46.17 17.26 46.33 17.26L46.33 17.26Q46.54 17.26 46.70 17.13Q46.86 17.00 47.04 16.77L47.04 16.77L47.28 17.04Q47.03 17.53 46.59 17.86Q46.14 18.19 45.64 18.19L45.64 18.19Q44.97 18.19 44.63 17.80Q44.30 17.42 44.30 16.72L44.30 16.72L44.30 13.05Q44.30 12.85 44.25 12.71Q44.21 12.57 44.06 12.57L44.06 12.57Q43.58 12.57 43.09 13.59Q42.60 14.60 42.27 15.92Q41.93 17.23 41.93 17.91L41.93 17.91L40.29 18.27L40.29 12.39Q40.29 12.18 40.19 12.04Q40.10 11.90 39.91 11.90L39.91 11.90Q39.72 11.90 39.53 12.06Q39.34 12.22 39.21 12.43L39.21 12.43L38.96 12.15Q39.17 11.66 39.62 11.31Q40.07 10.96 40.59 10.96L40.59 10.96Q41.29 10.96 41.61 11.35Q41.93 11.73 41.93 12.42L41.93 12.42L41.93 15.12L41.99 15.12Q42.36 13.57 43.11 12.26Q43.86 10.96 44.91 10.96L44.91 10.96ZM51.37 10.93L51.63 11.26Q50.71 11.91 50.18 12.75Q49.66 13.58 49.66 14.70L49.66 14.70Q49.66 15.32 49.90 15.95Q50.13 16.58 50.60 16.99Q51.06 17.40 51.70 17.40L51.70 17.40Q52.51 17.40 53.01 16.81Q53.51 16.23 53.51 15.36L53.51 15.36Q53.51 14.70 53.17 14.02Q52.82 13.34 52.25 12.87Q51.67 12.40 51.02 12.35L51.02 12.35Q51.31 12.03 51.65 11.76Q52.00 11.49 52.51 11.12L52.51 11.12Q53.52 11.45 54.12 12.36Q54.71 13.27 54.71 14.36L54.71 14.36Q54.71 15.33 54.29 16.24Q53.86 17.15 53.05 17.72Q52.25 18.28 51.18 18.28L51.18 18.28Q50.30 18.28 49.57 17.87Q48.83 17.46 48.40 16.74Q47.96 16.02 47.96 15.15L47.96 15.15Q47.96 13.65 48.91 12.52Q49.85 11.38 51.37 10.93L51.37 10.93ZM59.60 12.01L58.18 12.01L58.18 16.80Q58.18 17.00 58.30 17.13Q58.41 17.26 58.59 17.26L58.59 17.26Q58.93 17.26 59.35 16.77L59.35 16.77L59.60 17.04Q59.35 17.54 58.97 17.79Q58.59 18.05 58.24 18.13Q57.89 18.21 57.89 18.19L57.89 18.19Q56.49 18.19 56.49 16.72L56.49 16.72L56.49 12.01L55.50 12.01L55.93 11.09L56.49 11.09L56.49 7.91L58.18 7.34L58.18 11.09L60.02 11.09L59.60 12.01ZM57.89 18.19L57.89 18.19ZM64.72 10.96Q65.53 10.96 66.08 11.38Q66.63 11.79 66.63 12.57L66.63 12.57Q66.63 13.20 65.95 13.98Q65.27 14.76 64.34 15.42Q63.41 16.09 62.75 16.38L62.75 16.38Q63.34 17.32 64.47 17.32L64.47 17.32Q65.10 17.32 65.74 16.96Q66.37 16.60 66.82 16.02L66.82 16.02L67.10 16.35Q66.37 17.26 65.57 17.76Q64.76 18.26 63.66 18.26L63.66 18.26Q62.76 18.26 62.05 17.85Q61.35 17.44 60.95 16.74Q60.55 16.03 60.55 15.15L60.55 15.15Q60.55 14.08 61.13 13.11Q61.71 12.14 62.68 11.55Q63.64 10.96 64.72 10.96L64.72 10.96ZM63.92 11.87Q63.39 11.87 62.97 12.26Q62.55 12.64 62.31 13.24Q62.08 13.85 62.08 14.49L62.08 14.49Q62.08 15.33 62.44 15.93L62.44 15.93Q62.96 15.64 63.54 15.11Q64.12 14.59 64.51 13.99Q64.90 13.38 64.90 12.89L64.90 12.89Q64.90 12.40 64.64 12.14Q64.39 11.87 63.92 11.87L63.92 11.87Z"></path></g><defs data-v-fde0c5aa=""><linearGradient data-v-fde0c5aa="" gradientTransform="rotate(25)" id="89912163-2a4f-4c9d-8c6e-6ffbd4160d66" x1="0%" y1="0%" x2="100%" y2="0%"><stop data-v-fde0c5aa="" offset="0%" stop-color="#41E296" stop-opacity="1"></stop><stop data-v-fde0c5aa="" offset="100%" stop-color="#00C4EE" stop-opacity="1"></stop></linearGradient></defs><g data-v-fde0c5aa="" id="5025f845-1ce7-48b3-a26d-73114f5895c0" stroke="none" fill="url(#89912163-2a4f-4c9d-8c6e-6ffbd4160d66)" transform="matrix(0.5938958766510914,0,0,0.5938958766510914,34.168504524707146,120.26364723052035)"><path d="M75.51 70.217c3.006-11.689 18.702-17.477 13.692-41.3C84.193 5.095 56.08 2.666 41.558 6.431c-15.052 3.902-27.008 19.893-23.039 33.27a3.677 3.677 0 01-.46 3.045c-1.836 2.838-6.764 9.031-8.095 12.664a2.371 2.371 0 001.618 3.108c.423.112 3.02 1.137 3.357 1.244 3.464 1.103 2.796 8.767 2.796 15.797 0 7.347 7.792 6.345 10.353 5.789 2.56-.557 8.349-1.074 8.349 5.9 0 .931.028 1.682.07 2.285a3.598 3.598 0 002.303 3.099c5.147 1.982 20.054 5.075 38.062-1.364a1.875 1.875 0 001.039-2.605c-1.699-3.379-4.636-9.752-2.401-18.446zm-5.777-10.97c-4.028 2.097-7.15-.334-8.721-2.081a7.15 7.15 0 01-7.352-.941c-.044.148-5.477 1.397-6.426-2.387.087.002.171.011.259.011.091 0 .184-.001.276-.004 3.364-.096 6.6-1.919 9.619-5.419a1.403 1.403 0 10-2.126-1.834c-2.471 2.864-5.007 4.36-7.539 4.445a6.866 6.866 0 01-2.072-.256c-.176-.056-.346-.104-.528-.167-.186-.064-.353-.139-.525-.21-1.387-.612-2.239-1.446-2.259-1.466-.035-.036-.075-.063-.113-.095-1.879-1.953-1.828-4.627-1.5-6.411-6.716.746-9.882-1.73-11.376-4.139a7.577 7.577 0 001.804-.441c1.818-.707 3.182-2.085 4.053-4.094a1.404 1.404 0 00-2.575-1.117c-.568 1.31-1.38 2.157-2.483 2.589-.994.391-2.081.388-3.001.257a6.523 6.523 0 01-3.648-5.852 6.533 6.533 0 015.964-6.507 3.303 3.303 0 01-.392-2.205 3.324 3.324 0 012.784-2.713c.115-.016.225-.012.338-.017.437 1.326 1.329 3.145 3.054 3.867.489.205.996.306 1.52.306 1.093 0 2.262-.442 3.492-1.325a1.403 1.403 0 10-1.637-2.28c-.67.48-1.61.991-2.288.711-.763-.317-1.298-1.531-1.569-2.47a5.678 5.678 0 018.088-1.954 5.685 5.685 0 015.335-3.729 5.66 5.66 0 013.55 1.248 5.68 5.68 0 019.303-.076 4.808 4.808 0 012.478-.688 4.838 4.838 0 014.534 3.156 4.175 4.175 0 012.244-.655 4.196 4.196 0 014.196 4.196c0 .089-.008.176-.013.264a2.985 2.985 0 011.901-.188 2.982 2.982 0 012.046 4.128c.061-.003.12-.009.182-.009a3.712 3.712 0 013.712 3.712c0 .693-.203 1.334-.534 1.889-2.354-.352-5.258.245-7.536 3.488a1.403 1.403 0 102.297 1.613c2.788-3.97 6.479-1.845 6.896-1.586.028.018.058.028.086.043a11.639 11.639 0 011.615 5.929c0 3.557-1.589 6.741-4.094 8.886.265.905.312 1.904.028 2.947a5.446 5.446 0 01-3.927 3.824 5.326 5.326 0 01-3.09-.157c-.307 2.19-1.471 4.476-4.33 5.964z"></path><path d="M48.064 28.273c-2.269 2.466-3.017 6.237-1.861 9.384a1.403 1.403 0 102.634-.968c-.803-2.184-.283-4.802 1.292-6.515a1.404 1.404 0 00-2.065-1.901zM74.513 23.491c-1.802-3.272-4.705-4.198-7.379-4.126-.209-.969-.619-2.378-1.39-3.617a1.403 1.403 0 10-2.383 1.483c.519.835.822 1.82.99 2.549-.775.211-1.472.477-2.037.753a1.404 1.404 0 001.234 2.522c.241-.119 5.952-2.846 8.506 1.791a1.404 1.404 0 102.459-1.355zM61.762 38.571c.701 2.681 2.588 4.335 5.178 4.539a1.404 1.404 0 00.221-2.799c-.839-.066-1.474-.37-1.944-.928-.822-.979-.928-2.491-.917-2.882a1.405 1.405 0 00-1.351-1.715c-4.839-.058-5.722-4.645-5.759-4.848a1.404 1.404 0 00-2.767.474c.379 2.248 2.348 6.347 7.114 7.071.047.333.122.696.225 1.088zM52.023 14.561a1.404 1.404 0 00-.888 1.775c.548 1.645.498 2.943-.156 3.968-1.304 2.047-4.614 2.46-4.68 2.468a1.404 1.404 0 00.309 2.791c.191-.021 4.687-.548 6.73-3.736 1.129-1.762 1.284-3.908.461-6.379a1.404 1.404 0 00-1.776-.887zM69.834 53.343c-1.959.843-3.582.974-4.824.386-1.646-.78-2.212-2.643-2.229-2.7a1.404 1.404 0 00-2.706.744c.034.126.875 3.115 3.694 4.475a6.706 6.706 0 002.95.654c1.299 0 2.711-.327 4.226-.979a1.405 1.405 0 00-1.111-2.58z"></path></g><defs data-v-fde0c5aa=""><!----></defs><g data-v-fde0c5aa="" id="2c7441ee-90e9-4176-a497-73283433eaa4" fill="#000000" transform="matrix(0.28730501713576195,0,0,0.28730501713576195,100.18371257502753,161.66384052860656)"><path d="M7.87 4.98L7.87 4.98Q8.13 5.10 8.41 5.27Q8.69 5.45 8.93 5.63Q9.17 5.81 9.33 5.98Q9.49 6.16 9.51 6.27L9.51 6.27Q9.27 6.22 9.03 6.20Q8.79 6.17 8.60 6.17L8.60 6.17Q7.97 6.17 7.34 6.48Q6.72 6.79 6.16 7.32Q5.60 7.85 5.12 8.57Q4.65 9.28 4.30 10.09Q3.96 10.91 3.77 11.77Q3.57 12.64 3.57 13.48L3.57 13.48Q3.57 14.57 3.93 15.11Q4.30 15.64 5.00 15.64L5.00 15.64Q5.33 15.64 5.73 15.51Q6.12 15.37 6.52 15.13Q6.93 14.90 7.32 14.56Q7.71 14.22 8.05 13.82L8.05 13.82Q8.54 13.23 8.93 12.48Q9.32 11.73 9.60 10.89Q9.87 10.05 10.02 9.16Q10.16 8.27 10.16 7.42L10.16 7.42Q10.16 7.08 10.15 6.85Q10.14 6.62 10.12 6.46Q10.09 6.30 10.08 6.20Q10.07 6.10 10.05 6.03L10.05 6.03Q10.22 6.12 10.42 6.24Q10.63 6.36 10.80 6.59Q10.98 6.82 11.10 7.20Q11.21 7.57 11.21 8.18L11.21 8.18Q11.21 9.16 10.98 10.10Q10.75 11.05 10.34 11.90Q9.93 12.75 9.37 13.50Q8.81 14.24 8.16 14.80L8.16 14.80Q7.32 15.54 6.37 15.95Q5.42 16.35 4.54 16.35L4.54 16.35Q3.25 16.35 2.57 15.53Q1.89 14.71 1.89 13.12L1.89 13.12Q1.89 12.26 2.08 11.31Q2.27 10.36 2.61 9.44Q2.95 8.51 3.43 7.68Q3.91 6.85 4.47 6.21Q5.04 5.57 5.69 5.19Q6.34 4.82 7.03 4.82L7.03 4.82Q7.25 4.82 7.45 4.85Q7.64 4.89 7.87 4.98ZM28.06 7.46L28.06 7.46Q28.06 8.13 27.76 8.73Q27.45 9.32 26.92 9.79Q26.39 10.26 25.68 10.58Q24.96 10.91 24.12 11.02L24.12 11.02Q24.33 11.65 24.63 12.31Q24.93 12.98 25.28 13.59Q25.63 14.21 26.01 14.73Q26.39 15.25 26.75 15.58L26.75 15.58Q26.68 15.72 26.55 15.86Q26.42 16.00 26.24 16.12Q26.07 16.24 25.88 16.32Q25.69 16.39 25.52 16.39L25.52 16.39Q25.21 16.39 24.93 16.10Q24.65 15.81 24.37 15.17Q24.08 14.53 23.77 13.52Q23.45 12.50 23.07 11.07L23.07 11.07Q22.92 11.07 22.76 11.07Q22.61 11.07 22.53 11.05L22.53 11.05Q22.43 10.99 22.32 10.85L22.32 10.85Q21.94 11.66 21.64 12.38Q21.35 13.09 21.12 13.76Q20.89 14.42 20.71 15.04Q20.54 15.67 20.41 16.31L20.41 16.31Q19.94 16.20 19.59 15.90Q19.24 15.61 18.93 15.08L18.93 15.08Q18.98 14.95 19.05 14.83Q19.11 14.71 19.21 14.50Q19.31 14.28 19.45 13.94Q19.60 13.61 19.84 13.05Q20.09 12.49 20.43 11.68Q20.78 10.86 21.27 9.70L21.27 9.70Q21.49 9.18 21.65 8.79Q21.81 8.40 21.94 8.04Q22.06 7.69 22.17 7.33Q22.27 6.97 22.39 6.51L22.39 6.51Q21.74 6.73 21.19 7.01Q20.64 7.28 20.27 7.59L20.27 7.59Q20.15 7.50 20.01 7.34Q19.88 7.17 19.77 6.96Q19.66 6.76 19.57 6.55Q19.49 6.34 19.47 6.17L19.47 6.17Q19.89 5.89 20.50 5.66Q21.11 5.42 21.80 5.24Q22.48 5.07 23.20 4.97Q23.91 4.87 24.53 4.87L24.53 4.87Q26.21 4.87 27.13 5.56Q28.06 6.26 28.06 7.46ZM24.47 6.02L24.64 6.29Q24.54 6.41 24.33 6.79Q24.12 7.17 23.85 7.69Q23.58 8.22 23.27 8.83Q22.97 9.45 22.69 10.05L22.69 10.05Q23.74 10.05 24.63 9.86Q25.51 9.66 26.15 9.30Q26.80 8.95 27.15 8.46Q27.51 7.98 27.51 7.39L27.51 7.39Q27.51 6.69 27.01 6.32Q26.50 5.95 25.45 5.95L25.45 5.95Q25.21 5.95 24.98 5.97Q24.74 5.99 24.47 6.02L24.47 6.02ZM42.83 10.72L42.83 10.72Q43.19 10.72 43.40 10.98Q43.61 11.23 43.61 11.68L43.61 11.68Q43.61 11.79 43.60 11.91Q43.58 12.03 43.55 12.11L43.55 12.11Q43.26 12.04 42.91 12.03L42.91 12.03Q42.83 12.64 42.46 13.32Q42.10 14 41.58 14.60Q41.06 15.19 40.45 15.64Q39.83 16.09 39.23 16.24L39.23 16.24Q37.35 16.20 36.49 15.27Q35.63 14.34 35.63 12.36L35.63 12.36Q35.63 10.92 36.16 9.57Q36.69 8.22 37.58 7.17Q38.46 6.12 39.60 5.48Q40.74 4.84 41.97 4.84L41.97 4.84Q42.94 4.84 43.48 5.25Q44.02 5.66 44.02 6.40L44.02 6.40Q44.02 6.89 43.78 7.31Q43.55 7.73 43.02 8.22L43.02 8.22Q42.70 8.12 42.46 7.88Q42.22 7.63 42.17 7.31L42.17 7.31Q42.64 6.96 42.84 6.66Q43.04 6.37 43.04 5.96L43.04 5.96Q43.04 5.32 42.27 5.32L42.27 5.32Q41.64 5.32 40.91 5.79Q40.19 6.26 39.47 7.14L39.47 7.14Q38.43 8.39 37.95 9.71Q37.48 11.03 37.48 12.68L37.48 12.68Q37.48 13.30 37.60 13.80Q37.73 14.31 37.94 14.69Q38.15 15.06 38.44 15.29Q38.72 15.51 39.06 15.54L39.06 15.54Q39.51 15.44 39.96 15.09Q40.40 14.73 40.77 14.25Q41.15 13.76 41.41 13.21Q41.66 12.66 41.72 12.15L41.72 12.15Q41.33 12.24 40.97 12.31Q40.61 12.39 40.29 12.39L40.29 12.39Q39.87 12.39 39.56 12.18Q39.24 11.97 39.13 11.61L39.13 11.61Q39.38 11.47 39.87 11.31Q40.35 11.16 40.89 11.03Q41.44 10.89 41.97 10.81Q42.49 10.72 42.83 10.72ZM51.80 16.24L51.80 16.24Q51.13 16.04 50.87 15.85Q50.61 15.65 50.61 15.36L50.61 15.36Q50.61 15.13 50.74 14.73Q50.86 14.32 51.11 13.77Q51.35 13.22 51.70 12.54Q52.04 11.87 52.47 11.10L52.47 11.10Q52.11 11.09 51.82 11.08Q51.53 11.07 51.35 11.07L51.35 11.07Q51.44 10.86 51.83 10.71Q52.22 10.56 52.86 10.44L52.86 10.44Q53.41 9.53 54.03 8.71Q54.66 7.88 55.29 7.19Q55.92 6.50 56.55 5.97Q57.18 5.45 57.75 5.14L57.75 5.14Q57.76 5.04 57.77 4.97Q57.78 4.90 57.78 4.87L57.78 4.87Q57.97 4.87 58.30 4.97Q58.63 5.07 58.95 5.21Q59.26 5.35 59.51 5.49Q59.75 5.64 59.78 5.74L59.78 5.74Q59.32 6.55 58.87 8.17Q58.42 9.79 58.13 12.04L58.13 12.04Q58.06 12.60 58.01 13.31Q57.96 14.03 57.96 14.91L57.96 14.91Q57.96 15.22 57.96 15.54Q57.96 15.86 57.99 16.21L57.99 16.21Q57.96 16.23 57.93 16.23Q57.90 16.23 57.82 16.23L57.82 16.23Q57.62 16.23 57.37 16.16Q57.11 16.10 56.86 16.01Q56.62 15.92 56.44 15.81Q56.27 15.69 56.22 15.61L56.22 15.61Q56.21 15.43 56.21 15.25Q56.21 15.08 56.21 14.88L56.21 14.88Q56.21 14.01 56.27 13.12Q56.34 12.22 56.49 11.27L56.49 11.27Q56.29 11.26 55.97 11.23Q55.65 11.21 55.25 11.20Q54.85 11.19 54.40 11.16Q53.94 11.14 53.51 11.13L53.51 11.13Q53.17 11.76 52.88 12.38Q52.58 13.01 52.37 13.64L52.37 13.64Q52.14 14.31 51.99 14.98Q51.84 15.65 51.80 16.24ZM57.20 7.83L57.20 7.83Q57.26 7.63 57.34 7.29Q57.41 6.94 57.48 6.57L57.48 6.57Q57.13 6.69 56.71 7.03Q56.28 7.36 55.83 7.86Q55.37 8.36 54.90 8.98Q54.43 9.60 54.00 10.30L54.00 10.30Q55.17 10.21 56.67 10.18L56.67 10.18Q56.78 9.59 56.92 9.01Q57.05 8.43 57.20 7.83ZM68.40 16.24L68.40 16.24Q67.61 16.00 67.33 15.79Q67.05 15.57 67.05 15.19L67.05 15.19Q67.05 14.77 67.24 14.01Q67.44 13.24 67.75 12.31Q68.07 11.37 68.47 10.35Q68.88 9.32 69.30 8.39Q69.72 7.45 70.12 6.67Q70.52 5.89 70.83 5.46L70.83 5.46L70.73 4.87Q70.92 4.87 71.27 4.97Q71.62 5.07 71.98 5.21Q72.34 5.35 72.61 5.49Q72.88 5.64 72.91 5.74L72.91 5.74Q72.84 6.08 72.80 6.76Q72.76 7.43 72.76 8.20L72.76 8.20Q72.76 9.73 72.88 11.19Q73.00 12.66 73.43 14.17L73.43 14.17Q73.65 13.05 73.91 11.94Q74.17 10.82 74.45 9.81Q74.73 8.79 75.01 7.92Q75.29 7.06 75.55 6.40Q75.81 5.75 76.03 5.38Q76.26 5.01 76.44 4.98L76.44 4.98Q76.59 5.01 76.78 5.10Q76.96 5.19 77.13 5.32Q77.29 5.45 77.43 5.60Q77.57 5.75 77.66 5.91L77.66 5.91Q77.21 6.09 76.77 6.76Q76.33 7.43 75.93 8.39Q75.53 9.35 75.19 10.47Q74.84 11.59 74.58 12.68Q74.33 13.76 74.18 14.69Q74.03 15.61 74.02 16.17L74.02 16.17Q74.02 16.20 74.03 16.21L74.03 16.21Q73.99 16.23 73.94 16.23Q73.89 16.23 73.85 16.23L73.85 16.23Q73.21 16.23 72.71 16.07Q72.21 15.90 72.06 15.61L72.06 15.61Q71.76 14.43 71.57 13.34Q71.37 12.25 71.24 11.16Q71.11 10.07 71.03 8.95Q70.95 7.84 70.91 6.62L70.91 6.62Q70.64 7.04 70.35 7.72Q70.06 8.40 69.78 9.21Q69.50 10.02 69.24 10.92Q68.98 11.82 68.78 12.67Q68.59 13.52 68.47 14.29Q68.36 15.05 68.36 15.61L68.36 15.61Q68.36 15.90 68.37 16.03Q68.38 16.16 68.40 16.24ZM84.14 14.38L84.14 14.38Q84.14 13.87 84.30 13.07Q84.46 12.26 84.72 11.33Q84.98 10.40 85.32 9.43Q85.65 8.46 86.00 7.60Q86.35 6.75 86.69 6.10Q87.02 5.46 87.29 5.18L87.29 5.18Q87.43 5.19 87.66 5.29Q87.89 5.38 88.13 5.50Q88.37 5.63 88.56 5.78Q88.76 5.92 88.82 6.05L88.82 6.05Q88.41 6.41 88.01 7.15Q87.61 7.88 87.24 8.82Q86.87 9.76 86.55 10.80Q86.23 11.84 85.99 12.82Q85.75 13.80 85.62 14.64Q85.48 15.48 85.48 16.00L85.48 16.00Q85.48 16.24 85.53 16.30L85.53 16.30Q85.22 16.28 85.08 16.19Q84.94 16.10 84.86 16.00Q84.78 15.89 84.72 15.79Q84.66 15.68 84.53 15.62L84.53 15.62Q84.43 15.58 84.36 15.43Q84.29 15.27 84.25 15.09Q84.20 14.90 84.17 14.70Q84.14 14.50 84.14 14.38ZM97.52 7.28L97.52 7.28Q97.47 7.08 97.43 6.82Q97.40 6.57 97.40 6.06L97.40 6.06Q97.40 5.74 97.41 5.41Q97.43 5.08 97.54 4.84L97.54 4.84Q98.22 4.97 99.00 5.07Q99.78 5.18 100.59 5.26Q101.40 5.35 102.21 5.40Q103.03 5.45 103.78 5.45L103.78 5.45Q104.82 5.45 105.45 5.36L105.45 5.36Q105.67 5.67 105.73 6.09Q105.78 6.51 105.78 6.87L105.78 6.87Q104.17 7.53 102.73 8.55Q101.29 9.56 100.11 10.67Q98.94 11.77 98.08 12.85Q97.23 13.93 96.81 14.73L96.81 14.73Q97.06 14.69 97.33 14.65Q97.59 14.62 97.90 14.59Q98.21 14.56 98.59 14.53Q98.97 14.50 99.46 14.48L99.46 14.48Q100.14 14.43 100.66 14.33Q101.18 14.22 101.54 14.11Q101.91 13.99 102.12 13.88Q102.34 13.78 102.44 13.71L102.44 13.71Q102.49 13.83 102.57 14.08Q102.65 14.34 102.71 14.64Q102.77 14.94 102.82 15.25Q102.86 15.57 102.86 15.83L102.86 15.83Q102.86 15.97 102.85 16.02Q102.84 16.07 102.83 16.13L102.83 16.13Q102.20 16.09 101.56 16.03Q100.93 15.97 100.30 15.97L100.30 15.97Q99.46 15.97 98.55 16.07Q97.65 16.16 96.82 16.34Q95.98 16.53 95.29 16.83Q94.60 17.12 94.18 17.53L94.18 17.53Q94.07 17.16 93.95 16.91Q93.83 16.65 93.83 16.28L93.83 16.28Q93.83 15.92 93.97 15.70Q94.12 15.48 94.37 15.34L94.37 15.34Q95.21 14.14 96.28 12.96Q97.36 11.77 98.57 10.67Q99.79 9.56 101.09 8.56Q102.40 7.56 103.70 6.73L103.70 6.73Q102.86 6.69 101.92 6.69L101.92 6.69Q101.26 6.69 100.62 6.72Q99.97 6.75 99.40 6.81Q98.83 6.87 98.34 6.99Q97.86 7.11 97.52 7.28ZM117.68 9.21L117.68 9.21Q118.15 9.21 118.41 9.46Q118.66 9.72 118.66 10.16L118.66 10.16Q118.66 10.28 118.64 10.39Q118.62 10.51 118.59 10.60L118.59 10.60Q118.41 10.57 118.19 10.55Q117.96 10.53 117.66 10.53L117.66 10.53Q117.05 10.53 116.44 10.63Q115.82 10.74 115.26 10.81L115.26 10.81Q114.94 11.55 114.67 12.24Q114.41 12.94 114.22 13.51Q114.03 14.08 113.92 14.50Q113.82 14.92 113.81 15.13L113.81 15.13Q114.94 14.90 116.09 14.73Q117.25 14.56 118.52 14.48L118.52 14.48Q118.68 14.71 118.78 14.99Q118.89 15.27 118.89 15.60L118.89 15.60Q118.89 15.68 118.89 15.78Q118.89 15.88 118.86 15.97L118.86 15.97Q118.47 15.96 118.03 15.95Q117.60 15.95 116.90 15.95L116.90 15.95Q116.44 15.95 116.03 15.97Q115.61 15.99 115.19 16.03Q114.77 16.07 114.30 16.14Q113.83 16.21 113.25 16.31L113.25 16.31Q112.60 16.06 112 15.08L112 15.08Q112.24 14.57 112.67 13.54Q113.09 12.52 113.75 10.79L113.75 10.79Q113.12 10.60 112.92 10.09L112.92 10.09Q112.99 10.02 113.33 9.92Q113.67 9.81 114.16 9.70L114.16 9.70Q114.37 9.16 114.51 8.75Q114.66 8.34 114.77 7.99Q114.88 7.63 114.97 7.29Q115.07 6.94 115.15 6.54L115.15 6.54Q114.66 6.51 114.38 6.27Q114.10 6.02 114.10 5.63L114.10 5.63Q114.10 5.52 114.14 5.36Q114.17 5.21 114.21 5.10L114.21 5.10Q114.49 5.14 114.75 5.15Q115.01 5.17 115.43 5.17L115.43 5.17Q116.31 5.17 117.08 5.12Q117.85 5.07 118.47 5.01Q119.10 4.96 119.55 4.91Q119.99 4.86 120.23 4.86L120.23 4.86Q120.55 4.86 120.81 5.19Q121.06 5.53 121.18 6.15L121.18 6.15Q120.75 6.10 120.48 6.09Q120.20 6.08 119.99 6.08L119.99 6.08Q119.22 6.08 118.59 6.15Q117.95 6.23 117.36 6.31L117.36 6.31Q117.28 6.44 117.17 6.64Q117.07 6.83 116.90 7.18Q116.73 7.53 116.49 8.06Q116.24 8.60 115.89 9.39L115.89 9.39Q116.42 9.31 116.89 9.26Q117.36 9.21 117.68 9.21ZM142.93 10.35L142.93 10.35Q143.98 9.20 144.81 7.91Q145.64 6.62 146.36 5.01L146.36 5.01Q146.72 5.05 147.06 5.21Q147.39 5.36 147.59 5.56L147.59 5.56Q146.82 6.48 146.19 7.24Q145.57 7.99 145.05 8.66Q144.54 9.32 144.09 9.93Q143.65 10.54 143.23 11.16L143.23 11.16Q143.02 11.87 142.84 12.60Q142.66 13.33 142.52 13.99Q142.38 14.66 142.30 15.22Q142.23 15.79 142.23 16.20L142.23 16.20Q142.07 16.20 141.74 16.14Q141.40 16.07 141.05 15.99Q140.70 15.90 140.41 15.82Q140.13 15.74 140.07 15.68L140.07 15.68Q140.29 15.30 140.51 14.75Q140.73 14.20 140.94 13.59Q141.15 12.98 141.34 12.36Q141.54 11.73 141.71 11.20L141.71 11.20Q141.36 10.11 141.03 9.15Q140.70 8.19 140.39 7.41Q140.08 6.64 139.80 6.08Q139.52 5.52 139.27 5.22L139.27 5.22Q139.41 5.17 139.70 5.11Q139.99 5.05 140.33 5.00Q140.67 4.94 141.03 4.91Q141.39 4.87 141.67 4.86L141.67 4.86Q141.67 5.21 141.73 5.71Q141.79 6.22 141.90 6.79Q142.00 7.36 142.14 7.95Q142.28 8.54 142.42 9.03Q142.56 9.52 142.69 9.88Q142.83 10.23 142.93 10.35ZM159.57 4.98L159.57 4.98Q159.84 5.10 160.12 5.27Q160.40 5.45 160.64 5.63Q160.87 5.81 161.03 5.98Q161.20 6.16 161.21 6.27L161.21 6.27Q160.97 6.22 160.73 6.20Q160.50 6.17 160.30 6.17L160.30 6.17Q159.67 6.17 159.05 6.48Q158.42 6.79 157.86 7.32Q157.30 7.85 156.83 8.57Q156.35 9.28 156.01 10.09Q155.67 10.91 155.47 11.77Q155.27 12.64 155.27 13.48L155.27 13.48Q155.27 14.57 155.64 15.11Q156.00 15.64 156.70 15.64L156.70 15.64Q157.04 15.64 157.43 15.51Q157.82 15.37 158.23 15.13Q158.63 14.90 159.03 14.56Q159.42 14.22 159.75 13.82L159.75 13.82Q160.24 13.23 160.64 12.48Q161.03 11.73 161.30 10.89Q161.57 10.05 161.72 9.16Q161.87 8.27 161.87 7.42L161.87 7.42Q161.87 7.08 161.85 6.85Q161.84 6.62 161.82 6.46Q161.80 6.30 161.78 6.20Q161.77 6.10 161.76 6.03L161.76 6.03Q161.92 6.12 162.13 6.24Q162.33 6.36 162.50 6.59Q162.68 6.82 162.80 7.20Q162.92 7.57 162.92 8.18L162.92 8.18Q162.92 9.16 162.69 10.10Q162.46 11.05 162.04 11.90Q161.63 12.75 161.07 13.50Q160.51 14.24 159.87 14.80L159.87 14.80Q159.03 15.54 158.07 15.95Q157.12 16.35 156.24 16.35L156.24 16.35Q154.95 16.35 154.27 15.53Q153.59 14.71 153.59 13.12L153.59 13.12Q153.59 12.26 153.78 11.31Q153.97 10.36 154.31 9.44Q154.66 8.51 155.13 7.68Q155.61 6.85 156.18 6.21Q156.74 5.57 157.40 5.19Q158.05 4.82 158.73 4.82L158.73 4.82Q158.96 4.82 159.15 4.85Q159.35 4.89 159.57 4.98ZM175.62 5.75L175.62 5.75Q175.00 6.58 174.50 7.57Q173.99 8.57 173.64 9.61Q173.28 10.65 173.09 11.67Q172.90 12.68 172.90 13.57L172.90 13.57Q172.90 14.66 173.22 15.15Q173.54 15.64 174.33 15.64L174.33 15.64Q175.24 15.64 175.92 15.00Q176.61 14.36 177.21 13.24L177.21 13.24Q177.60 12.52 177.88 11.65Q178.16 10.78 178.34 9.86Q178.51 8.95 178.60 8.02Q178.68 7.08 178.68 6.23L178.68 6.23Q178.68 5.68 178.67 5.43Q178.65 5.18 178.63 5.03L178.63 5.03Q178.67 5.03 178.84 5.05Q179.00 5.08 179.22 5.12Q179.44 5.17 179.66 5.24Q179.87 5.31 180.03 5.39L180.03 5.39Q179.96 6.45 179.77 7.59Q179.58 8.72 179.27 9.83Q178.96 10.93 178.56 11.96Q178.15 12.98 177.65 13.79L177.65 13.79Q176.90 14.99 175.98 15.67Q175.06 16.35 173.80 16.35L173.80 16.35Q172.51 16.35 171.79 15.60Q171.08 14.85 171.08 13.33L171.08 13.33Q171.08 12.45 171.28 11.33Q171.47 10.22 171.80 9.07Q172.13 7.91 172.56 6.81Q173.00 5.71 173.47 4.84L173.47 4.84Q173.71 4.86 174.03 4.94Q174.36 5.03 174.66 5.16Q174.97 5.29 175.23 5.45Q175.49 5.61 175.62 5.75ZM196.52 7.46L196.52 7.46Q196.52 8.13 196.22 8.73Q195.92 9.32 195.38 9.79Q194.85 10.26 194.14 10.58Q193.42 10.91 192.58 11.02L192.58 11.02Q192.79 11.65 193.10 12.31Q193.40 12.98 193.75 13.59Q194.10 14.21 194.47 14.73Q194.85 15.25 195.22 15.58L195.22 15.58Q195.15 15.72 195.01 15.86Q194.88 16.00 194.71 16.12Q194.53 16.24 194.34 16.32Q194.15 16.39 193.98 16.39L193.98 16.39Q193.68 16.39 193.40 16.10Q193.12 15.81 192.83 15.17Q192.54 14.53 192.23 13.52Q191.91 12.50 191.53 11.07L191.53 11.07Q191.38 11.07 191.23 11.07Q191.07 11.07 190.99 11.05L190.99 11.05Q190.89 10.99 190.78 10.85L190.78 10.85Q190.40 11.66 190.11 12.38Q189.81 13.09 189.58 13.76Q189.35 14.42 189.18 15.04Q189.00 15.67 188.87 16.31L188.87 16.31Q188.40 16.20 188.05 15.90Q187.70 15.61 187.39 15.08L187.39 15.08Q187.45 14.95 187.51 14.83Q187.57 14.71 187.67 14.50Q187.77 14.28 187.92 13.94Q188.06 13.61 188.31 13.05Q188.55 12.49 188.90 11.68Q189.24 10.86 189.73 9.70L189.73 9.70Q189.95 9.18 190.11 8.79Q190.27 8.40 190.40 8.04Q190.53 7.69 190.63 7.33Q190.74 6.97 190.85 6.51L190.85 6.51Q190.20 6.73 189.65 7.01Q189.10 7.28 188.73 7.59L188.73 7.59Q188.61 7.50 188.48 7.34Q188.34 7.17 188.23 6.96Q188.12 6.76 188.03 6.55Q187.95 6.34 187.94 6.17L187.94 6.17Q188.36 5.89 188.97 5.66Q189.57 5.42 190.26 5.24Q190.95 5.07 191.66 4.97Q192.37 4.87 192.99 4.87L192.99 4.87Q194.67 4.87 195.59 5.56Q196.52 6.26 196.52 7.46ZM192.93 6.02L193.10 6.29Q193.00 6.41 192.79 6.79Q192.58 7.17 192.31 7.69Q192.04 8.22 191.74 8.83Q191.44 9.45 191.16 10.05L191.16 10.05Q192.21 10.05 193.09 9.86Q193.97 9.66 194.61 9.30Q195.26 8.95 195.62 8.46Q195.97 7.98 195.97 7.39L195.97 7.39Q195.97 6.69 195.47 6.32Q194.96 5.95 193.91 5.95L193.91 5.95Q193.68 5.95 193.44 5.97Q193.20 5.99 192.93 6.02L192.93 6.02ZM219.79 16.21L219.79 16.21Q219.76 16.23 219.73 16.23Q219.70 16.23 219.62 16.23L219.62 16.23Q219.42 16.23 219.16 16.16Q218.90 16.10 218.66 16.01Q218.41 15.92 218.24 15.81Q218.06 15.69 218.02 15.61L218.02 15.61Q218.01 15.41 218.01 15.20Q218.01 14.99 218.01 14.80L218.01 14.80Q218.01 13.23 218.24 11.52Q218.47 9.81 219.00 7.83L219.00 7.83Q219.06 7.63 219.12 7.33Q219.18 7.03 219.25 6.68L219.25 6.68Q218.92 6.94 218.46 7.53Q217.99 8.11 217.48 8.90Q216.97 9.69 216.46 10.63Q215.95 11.58 215.53 12.55Q215.11 13.52 214.81 14.48Q214.51 15.43 214.44 16.24L214.44 16.24Q213.77 16.04 213.51 15.85Q213.25 15.65 213.25 15.37L213.25 15.37Q213.25 15.12 213.40 14.66Q213.56 14.20 213.84 13.57Q214.12 12.94 214.52 12.16Q214.93 11.38 215.42 10.49L215.42 10.49Q215.98 9.46 216.52 8.57Q217.06 7.67 217.57 6.94Q218.09 6.22 218.59 5.68Q219.09 5.15 219.58 4.87L219.58 4.87Q219.77 4.87 220.10 4.97Q220.43 5.07 220.75 5.21Q221.06 5.35 221.31 5.49Q221.55 5.64 221.58 5.74L221.58 5.74Q221.38 6.13 221.12 6.92Q220.85 7.70 220.58 8.69Q220.30 9.69 220.06 10.80Q219.81 11.91 219.67 12.94L219.67 12.94Q220.00 12.17 220.42 11.33Q220.85 10.50 221.33 9.68Q221.80 8.86 222.30 8.09Q222.80 7.32 223.27 6.69Q223.75 6.05 224.16 5.57Q224.57 5.10 224.90 4.87L224.90 4.87Q225.09 4.87 225.42 4.97Q225.75 5.07 226.07 5.21Q226.38 5.35 226.63 5.49Q226.87 5.64 226.90 5.74L226.90 5.74Q226.45 6.54 226.11 7.69Q225.78 8.83 225.55 10.09Q225.32 11.35 225.20 12.59Q225.08 13.83 225.08 14.81L225.08 14.81Q225.08 15.13 225.08 15.48Q225.08 15.83 225.11 16.21L225.11 16.21Q224.91 16.21 224.64 16.16Q224.36 16.11 224.11 16.03Q223.85 15.95 223.64 15.84Q223.43 15.74 223.34 15.61L223.34 15.61Q223.33 15.41 223.33 15.20Q223.33 14.99 223.33 14.80L223.33 14.80Q223.33 13.23 223.56 11.52Q223.79 9.81 224.32 7.83L224.32 7.83Q224.38 7.63 224.45 7.29Q224.52 6.96 224.59 6.59L224.59 6.59Q224.20 6.79 223.70 7.34Q223.20 7.90 222.69 8.69Q222.18 9.48 221.68 10.44Q221.19 11.41 220.79 12.41Q220.39 13.41 220.12 14.40Q219.84 15.39 219.79 16.21ZM234.53 14.38L234.53 14.38Q234.53 13.87 234.69 13.07Q234.85 12.26 235.11 11.33Q235.37 10.40 235.70 9.43Q236.04 8.46 236.39 7.60Q236.74 6.75 237.08 6.10Q237.41 5.46 237.68 5.18L237.68 5.18Q237.82 5.19 238.05 5.29Q238.28 5.38 238.52 5.50Q238.76 5.63 238.95 5.78Q239.15 5.92 239.20 6.05L239.20 6.05Q238.80 6.41 238.40 7.15Q238.00 7.88 237.63 8.82Q237.26 9.76 236.94 10.80Q236.61 11.84 236.38 12.82Q236.14 13.80 236.01 14.64Q235.87 15.48 235.87 16.00L235.87 16.00Q235.87 16.24 235.91 16.30L235.91 16.30Q235.61 16.28 235.47 16.19Q235.33 16.10 235.25 16.00Q235.17 15.89 235.11 15.79Q235.05 15.68 234.92 15.62L234.92 15.62Q234.82 15.58 234.75 15.43Q234.68 15.27 234.63 15.09Q234.58 14.90 234.56 14.70Q234.53 14.50 234.53 14.38ZM246.76 16.24L246.76 16.24Q245.97 16.00 245.69 15.79Q245.41 15.57 245.41 15.19L245.41 15.19Q245.41 14.77 245.60 14.01Q245.80 13.24 246.11 12.31Q246.43 11.37 246.83 10.35Q247.24 9.32 247.66 8.39Q248.08 7.45 248.48 6.67Q248.88 5.89 249.19 5.46L249.19 5.46L249.09 4.87Q249.28 4.87 249.63 4.97Q249.98 5.07 250.34 5.21Q250.70 5.35 250.97 5.49Q251.24 5.64 251.27 5.74L251.27 5.74Q251.20 6.08 251.16 6.76Q251.12 7.43 251.12 8.20L251.12 8.20Q251.12 9.73 251.24 11.19Q251.36 12.66 251.79 14.17L251.79 14.17Q252.01 13.05 252.27 11.94Q252.53 10.82 252.81 9.81Q253.09 8.79 253.37 7.92Q253.65 7.06 253.91 6.40Q254.17 5.75 254.39 5.38Q254.62 5.01 254.80 4.98L254.80 4.98Q254.95 5.01 255.14 5.10Q255.32 5.19 255.49 5.32Q255.65 5.45 255.79 5.60Q255.93 5.75 256.02 5.91L256.02 5.91Q255.57 6.09 255.13 6.76Q254.69 7.43 254.29 8.39Q253.89 9.35 253.55 10.47Q253.20 11.59 252.95 12.68Q252.69 13.76 252.54 14.69Q252.39 15.61 252.38 16.17L252.38 16.17Q252.38 16.20 252.39 16.21L252.39 16.21Q252.35 16.23 252.30 16.23Q252.25 16.23 252.21 16.23L252.21 16.23Q251.57 16.23 251.07 16.07Q250.57 15.90 250.42 15.61L250.42 15.61Q250.12 14.43 249.93 13.34Q249.73 12.25 249.60 11.16Q249.47 10.07 249.39 8.95Q249.31 7.84 249.27 6.62L249.27 6.62Q249.00 7.04 248.71 7.72Q248.42 8.40 248.14 9.21Q247.86 10.02 247.60 10.92Q247.34 11.82 247.14 12.67Q246.95 13.52 246.83 14.29Q246.72 15.05 246.72 15.61L246.72 15.61Q246.72 15.90 246.73 16.03Q246.74 16.16 246.76 16.24ZM263.02 14.45L263.02 14.45Q263.23 13.99 263.52 13.26Q263.82 12.53 264.14 11.68Q264.46 10.84 264.80 9.95Q265.13 9.06 265.43 8.26Q265.72 7.46 265.94 6.83Q266.15 6.20 266.25 5.87L266.25 5.87Q265.37 6.23 264.74 6.97Q264.11 7.71 263.79 8.83L263.79 8.83Q263.47 8.72 263.20 8.43Q262.93 8.15 262.85 7.71L262.85 7.71Q262.99 7.07 263.38 6.54Q263.76 6.01 264.35 5.63Q264.94 5.25 265.71 5.05Q266.48 4.84 267.36 4.84L267.36 4.84Q268.48 4.84 269.42 5.17Q270.35 5.50 271.03 6.09Q271.70 6.68 272.08 7.50Q272.45 8.33 272.45 9.34L272.45 9.34Q272.45 10.71 271.95 11.96Q271.45 13.20 270.59 14.15Q269.72 15.11 268.59 15.67Q267.46 16.24 266.21 16.24L266.21 16.24Q265.06 16.24 264.24 15.79Q263.42 15.33 263.02 14.45ZM267.96 5.54L267.96 5.54Q267.26 5.54 266.63 5.74L266.63 5.74Q267.25 5.96 267.65 6.21Q268.06 6.45 268.21 6.59L268.21 6.59Q268.10 6.75 267.88 7.14Q267.67 7.53 267.38 8.09Q267.09 8.65 266.77 9.32Q266.45 9.98 266.14 10.68L266.14 10.68Q265.34 12.46 264.99 13.48Q264.63 14.50 264.63 14.90L264.63 14.90Q264.82 14.97 265.10 14.99Q265.38 15.02 265.71 15.02L265.71 15.02Q266.84 15.02 267.86 14.50Q268.87 13.97 269.63 13.09Q270.40 12.21 270.84 11.04Q271.28 9.87 271.28 8.58L271.28 8.58Q271.28 7.14 270.38 6.34Q269.49 5.54 267.96 5.54ZM278.80 17.54L278.80 17.54Q278.71 17.47 278.64 17.31Q278.57 17.15 278.57 17.01L278.57 17.01Q279.27 16.41 279.57 15.86Q279.87 15.32 279.87 14.67L279.87 14.67Q279.87 14.25 279.84 13.95Q279.80 13.65 279.71 13.26L279.71 13.26Q280.06 13.29 280.40 13.38Q280.74 13.47 281.02 13.60Q281.29 13.73 281.47 13.91Q281.65 14.08 281.69 14.25L281.69 14.25Q281.04 16.58 278.80 17.54ZM309.79 5.74L309.79 5.74Q309.83 5.98 309.86 6.07Q309.88 6.16 309.88 6.31L309.88 6.31Q309.88 6.78 309.67 7.18Q309.47 7.57 309.12 7.74L309.12 7.74Q308.84 7.36 308.43 7.09Q308.03 6.82 307.55 6.64Q307.06 6.47 306.54 6.38Q306.03 6.30 305.54 6.30L305.54 6.30Q305.05 6.30 304.62 6.38Q304.19 6.45 303.86 6.59Q303.53 6.72 303.35 6.92Q303.16 7.11 303.16 7.36L303.16 7.36Q303.20 7.67 303.53 7.99Q303.87 8.30 304.36 8.60Q304.85 8.90 305.45 9.20Q306.04 9.49 306.61 9.76L306.61 9.76Q307.33 10.09 307.85 10.38Q308.36 10.67 308.70 11.01Q309.04 11.35 309.20 11.79Q309.37 12.22 309.37 12.84L309.37 12.84Q309.37 13.55 309.13 14.18Q308.90 14.80 308.44 15.26Q307.99 15.72 307.34 15.98Q306.70 16.24 305.90 16.24L305.90 16.24Q305.12 16.24 304.21 16.00Q303.30 15.76 302.51 15.35Q301.71 14.94 301.19 14.40Q300.66 13.86 300.66 13.26L300.66 13.26Q300.66 12.98 300.83 12.54Q300.99 12.11 301.41 11.63L301.41 11.63Q301.45 12.05 301.86 12.63Q302.27 13.20 303.10 13.69L303.10 13.69Q303.87 14.14 304.69 14.34Q305.51 14.55 306.22 14.55L306.22 14.55Q307.01 14.55 307.50 14.35Q307.99 14.15 308.27 13.88Q308.55 13.61 308.66 13.33Q308.77 13.05 308.78 12.88L308.78 12.88Q308.77 12.60 308.53 12.34Q308.28 12.08 307.87 11.84Q307.45 11.59 306.91 11.34Q306.36 11.09 305.77 10.84L305.77 10.84Q304.89 10.44 304.26 10.10Q303.62 9.76 303.21 9.40Q302.79 9.04 302.60 8.65Q302.41 8.26 302.41 7.76L302.41 7.76Q302.41 6.97 302.89 6.27Q303.37 5.57 304.26 5.21L304.26 5.21Q304.71 5.01 305.22 4.93Q305.73 4.84 306.22 4.84L306.22 4.84Q307.15 4.84 308.03 5.10Q308.91 5.35 309.79 5.74ZM317.91 14.38L317.91 14.38Q317.91 13.87 318.07 13.07Q318.23 12.26 318.49 11.33Q318.75 10.40 319.09 9.43Q319.42 8.46 319.77 7.60Q320.12 6.75 320.46 6.10Q320.80 5.46 321.06 5.18L321.06 5.18Q321.20 5.19 321.43 5.29Q321.66 5.38 321.90 5.50Q322.14 5.63 322.34 5.78Q322.53 5.92 322.59 6.05L322.59 6.05Q322.18 6.41 321.78 7.15Q321.38 7.88 321.01 8.82Q320.64 9.76 320.32 10.80Q320.00 11.84 319.76 12.82Q319.52 13.80 319.39 14.64Q319.26 15.48 319.26 16.00L319.26 16.00Q319.26 16.24 319.30 16.30L319.30 16.30Q318.99 16.28 318.85 16.19Q318.71 16.10 318.63 16.00Q318.56 15.89 318.49 15.79Q318.43 15.68 318.30 15.62L318.30 15.62Q318.21 15.58 318.14 15.43Q318.07 15.27 318.02 15.09Q317.97 14.90 317.94 14.70Q317.91 14.50 317.91 14.38ZM334.68 16.21L334.68 16.21Q334.66 16.23 334.63 16.23Q334.60 16.23 334.52 16.23L334.52 16.23Q334.32 16.23 334.06 16.16Q333.80 16.10 333.56 16.01Q333.31 15.92 333.14 15.81Q332.96 15.69 332.92 15.61L332.92 15.61Q332.91 15.41 332.91 15.20Q332.91 14.99 332.91 14.80L332.91 14.80Q332.91 13.23 333.14 11.52Q333.37 9.81 333.90 7.83L333.90 7.83Q333.96 7.63 334.02 7.33Q334.08 7.03 334.15 6.68L334.15 6.68Q333.82 6.94 333.35 7.53Q332.89 8.11 332.38 8.90Q331.87 9.69 331.36 10.63Q330.85 11.58 330.43 12.55Q330.01 13.52 329.71 14.48Q329.41 15.43 329.34 16.24L329.34 16.24Q328.66 16.04 328.41 15.85Q328.15 15.65 328.15 15.37L328.15 15.37Q328.15 15.12 328.30 14.66Q328.45 14.20 328.73 13.57Q329.01 12.94 329.42 12.16Q329.83 11.38 330.32 10.49L330.32 10.49Q330.88 9.46 331.42 8.57Q331.95 7.67 332.47 6.94Q332.99 6.22 333.49 5.68Q333.98 5.15 334.47 4.87L334.47 4.87Q334.67 4.87 335.00 4.97Q335.33 5.07 335.64 5.21Q335.96 5.35 336.20 5.49Q336.45 5.64 336.48 5.74L336.48 5.74Q336.28 6.13 336.01 6.92Q335.75 7.70 335.48 8.69Q335.20 9.69 334.96 10.80Q334.71 11.91 334.57 12.94L334.57 12.94Q334.89 12.17 335.32 11.33Q335.75 10.50 336.22 9.68Q336.70 8.86 337.20 8.09Q337.69 7.32 338.17 6.69Q338.65 6.05 339.06 5.57Q339.47 5.10 339.79 4.87L339.79 4.87Q339.99 4.87 340.32 4.97Q340.65 5.07 340.96 5.21Q341.28 5.35 341.52 5.49Q341.77 5.64 341.80 5.74L341.80 5.74Q341.35 6.54 341.01 7.69Q340.68 8.83 340.45 10.09Q340.21 11.35 340.10 12.59Q339.98 13.83 339.98 14.81L339.98 14.81Q339.98 15.13 339.98 15.48Q339.98 15.83 340.00 16.21L340.00 16.21Q339.81 16.21 339.54 16.16Q339.26 16.11 339.00 16.03Q338.74 15.95 338.53 15.84Q338.32 15.74 338.24 15.61L338.24 15.61Q338.23 15.41 338.23 15.20Q338.23 14.99 338.23 14.80L338.23 14.80Q338.23 13.23 338.46 11.52Q338.69 9.81 339.22 7.83L339.22 7.83Q339.28 7.63 339.35 7.29Q339.42 6.96 339.49 6.59L339.49 6.59Q339.09 6.79 338.60 7.34Q338.10 7.90 337.59 8.69Q337.08 9.48 336.58 10.44Q336.08 11.41 335.69 12.41Q335.29 13.41 335.01 14.40Q334.74 15.39 334.68 16.21ZM358.62 7.63L358.62 7.63Q358.62 8.40 358.24 9.10Q357.85 9.80 357.20 10.32Q356.55 10.85 355.68 11.16Q354.80 11.47 353.82 11.47L353.82 11.47Q353.47 11.47 353.27 11.38Q353.07 11.28 352.81 11.02L352.81 11.02Q352.11 12.54 351.67 13.82Q351.23 15.11 350.98 16.31L350.98 16.31Q350.45 16.18 350.11 15.87Q349.78 15.55 349.50 15.08L349.50 15.08Q349.64 14.81 349.83 14.38Q350.03 13.94 350.31 13.31Q350.59 12.67 350.96 11.78Q351.33 10.89 351.83 9.70L351.83 9.70Q352.06 9.16 352.23 8.75Q352.39 8.34 352.52 7.99Q352.65 7.63 352.75 7.28Q352.86 6.93 352.97 6.51L352.97 6.51Q352.31 6.72 351.76 7Q351.20 7.28 350.84 7.59L350.84 7.59Q350.71 7.50 350.58 7.34Q350.45 7.17 350.34 6.96Q350.22 6.76 350.14 6.55Q350.06 6.34 350.04 6.17L350.04 6.17Q350.45 5.89 351.05 5.66Q351.65 5.42 352.34 5.24Q353.02 5.07 353.76 4.97Q354.49 4.87 355.17 4.87L355.17 4.87Q355.96 4.87 356.61 5.07Q357.25 5.28 357.70 5.64Q358.15 6.01 358.39 6.51Q358.62 7.01 358.62 7.63ZM356.13 5.95L356.13 5.95Q355.60 5.95 355.04 6.03L355.04 6.03L355.21 6.29Q355.07 6.47 354.86 6.83Q354.65 7.20 354.40 7.71Q354.14 8.22 353.84 8.85Q353.54 9.48 353.21 10.18L353.21 10.18Q354.30 10.18 355.19 9.97Q356.09 9.77 356.73 9.41Q357.36 9.06 357.72 8.58Q358.08 8.11 358.08 7.56L358.08 7.56Q358.08 6.83 357.59 6.39Q357.10 5.95 356.13 5.95ZM370.29 14.38L370.29 14.38Q370.64 14.98 370.64 15.54L370.64 15.54Q370.64 15.67 370.62 15.77Q370.59 15.88 370.57 15.99L370.57 15.99Q370.33 15.96 370.07 15.95Q369.81 15.93 369.53 15.93L369.53 15.93Q369.19 15.93 368.85 15.95Q368.51 15.97 368.09 16.02Q367.67 16.06 367.15 16.13Q366.63 16.20 365.95 16.31L365.95 16.31Q365.62 16.20 365.30 15.87Q364.98 15.54 364.70 15.08L364.70 15.08Q364.84 14.77 365.05 14.31Q365.26 13.86 365.54 13.21Q365.82 12.56 366.16 11.68Q366.51 10.81 366.90 9.66L366.90 9.66Q367.15 8.90 367.33 8.33Q367.51 7.76 367.66 7.22Q367.81 6.68 367.95 6.09Q368.09 5.50 368.26 4.73L368.26 4.73Q368.82 4.84 369.23 5.14Q369.64 5.45 370.02 6.01L370.02 6.01Q369.91 6.19 369.73 6.59Q369.54 7 369.30 7.58Q369.05 8.16 368.76 8.90Q368.47 9.63 368.14 10.47L368.14 10.47Q367.84 11.30 367.54 12.03Q367.25 12.75 367.02 13.34Q366.79 13.93 366.65 14.35Q366.51 14.77 366.51 14.98L366.51 14.98Q366.73 14.97 366.91 14.95Q367.09 14.94 367.29 14.90Q367.49 14.87 367.72 14.82Q367.95 14.77 368.27 14.69L368.27 14.69Q368.55 14.62 368.79 14.57Q369.03 14.52 369.26 14.48Q369.49 14.45 369.73 14.43Q369.98 14.41 370.29 14.38ZM379.25 14.38L379.25 14.38Q379.25 13.87 379.41 13.07Q379.57 12.26 379.83 11.33Q380.09 10.40 380.42 9.43Q380.76 8.46 381.11 7.60Q381.46 6.75 381.79 6.10Q382.13 5.46 382.40 5.18L382.40 5.18Q382.54 5.19 382.77 5.29Q383.00 5.38 383.24 5.50Q383.47 5.63 383.67 5.78Q383.87 5.92 383.92 6.05L383.92 6.05Q383.52 6.41 383.12 7.15Q382.72 7.88 382.35 8.82Q381.98 9.76 381.65 10.80Q381.33 11.84 381.09 12.82Q380.86 13.80 380.72 14.64Q380.59 15.48 380.59 16.00L380.59 16.00Q380.59 16.24 380.63 16.30L380.63 16.30Q380.32 16.28 380.18 16.19Q380.04 16.10 379.97 16.00Q379.89 15.89 379.83 15.79Q379.76 15.68 379.64 15.62L379.64 15.62Q379.54 15.58 379.47 15.43Q379.40 15.27 379.35 15.09Q379.30 14.90 379.27 14.70Q379.25 14.50 379.25 14.38ZM396.10 9.34L396.10 9.34Q396.55 9.34 396.81 9.59Q397.07 9.84 397.07 10.29L397.07 10.29Q397.07 10.40 397.05 10.52Q397.04 10.64 397.00 10.72L397.00 10.72Q396.82 10.70 396.59 10.68Q396.37 10.65 396.06 10.65L396.06 10.65Q395.43 10.65 394.80 10.77Q394.17 10.88 393.60 10.95L393.60 10.95Q392.97 12.43 392.56 13.73Q392.15 15.04 391.93 16.31L391.93 16.31Q391.45 16.20 391.09 15.90Q390.73 15.61 390.40 15.08L390.40 15.08Q390.50 14.85 390.64 14.54Q390.78 14.22 390.98 13.74Q391.17 13.26 391.45 12.56Q391.72 11.87 392.10 10.91L392.10 10.91Q391.51 10.71 391.33 10.22L391.33 10.22Q391.40 10.15 391.72 10.06Q392.04 9.97 392.50 9.86L392.50 9.86Q392.71 9.31 392.87 8.88Q393.02 8.46 393.15 8.07Q393.27 7.69 393.38 7.32Q393.48 6.94 393.57 6.52L393.57 6.52L393.50 6.52Q392.97 6.52 392.64 6.27Q392.31 6.02 392.31 5.61L392.31 5.61Q392.31 5.50 392.34 5.35Q392.38 5.19 392.43 5.08L392.43 5.08Q392.70 5.12 392.96 5.14Q393.22 5.15 393.64 5.15L393.64 5.15Q394.52 5.15 395.29 5.10Q396.06 5.05 396.68 5.00Q397.31 4.94 397.75 4.89Q398.20 4.84 398.44 4.84L398.44 4.84Q398.76 4.84 399.01 5.18Q399.27 5.52 399.41 6.13L399.41 6.13Q398.96 6.09 398.69 6.08Q398.41 6.06 398.20 6.06L398.20 6.06Q397.49 6.06 396.89 6.13Q396.30 6.19 395.77 6.27L395.77 6.27Q395.68 6.40 395.58 6.59Q395.47 6.79 395.30 7.15Q395.14 7.50 394.88 8.08Q394.62 8.65 394.23 9.53L394.23 9.53Q394.77 9.45 395.27 9.39Q395.77 9.34 396.10 9.34ZM410.12 10.35L410.12 10.35Q411.17 9.20 412.00 7.91Q412.83 6.62 413.55 5.01L413.55 5.01Q413.91 5.05 414.25 5.21Q414.58 5.36 414.78 5.56L414.78 5.56Q414.01 6.48 413.39 7.24Q412.76 7.99 412.24 8.66Q411.73 9.32 411.29 9.93Q410.84 10.54 410.42 11.16L410.42 11.16Q410.21 11.87 410.03 12.60Q409.85 13.33 409.71 13.99Q409.57 14.66 409.49 15.22Q409.42 15.79 409.42 16.20L409.42 16.20Q409.26 16.20 408.93 16.14Q408.59 16.07 408.24 15.99Q407.89 15.90 407.60 15.82Q407.32 15.74 407.26 15.68L407.26 15.68Q407.48 15.30 407.70 14.75Q407.92 14.20 408.13 13.59Q408.34 12.98 408.53 12.36Q408.73 11.73 408.90 11.20L408.90 11.20Q408.55 10.11 408.22 9.15Q407.89 8.19 407.58 7.41Q407.27 6.64 406.99 6.08Q406.71 5.52 406.46 5.22L406.46 5.22Q406.60 5.17 406.89 5.11Q407.18 5.05 407.52 5.00Q407.86 4.94 408.22 4.91Q408.58 4.87 408.86 4.86L408.86 4.86Q408.86 5.21 408.92 5.71Q408.98 6.22 409.09 6.79Q409.19 7.36 409.33 7.95Q409.47 8.54 409.61 9.03Q409.75 9.52 409.89 9.88Q410.02 10.23 410.12 10.35ZM436.03 10.35L436.03 10.35Q437.08 9.20 437.91 7.91Q438.75 6.62 439.46 5.01L439.46 5.01Q439.82 5.05 440.16 5.21Q440.50 5.36 440.69 5.56L440.69 5.56Q439.92 6.48 439.30 7.24Q438.68 7.99 438.16 8.66Q437.64 9.32 437.20 9.93Q436.76 10.54 436.34 11.16L436.34 11.16Q436.13 11.87 435.95 12.60Q435.76 13.33 435.62 13.99Q435.48 14.66 435.41 15.22Q435.33 15.79 435.33 16.20L435.33 16.20Q435.18 16.20 434.84 16.14Q434.50 16.07 434.15 15.99Q433.80 15.90 433.52 15.82Q433.23 15.74 433.17 15.68L433.17 15.68Q433.40 15.30 433.62 14.75Q433.83 14.20 434.04 13.59Q434.25 12.98 434.45 12.36Q434.64 11.73 434.81 11.20L434.81 11.20Q434.46 10.11 434.13 9.15Q433.80 8.19 433.50 7.41Q433.19 6.64 432.91 6.08Q432.63 5.52 432.38 5.22L432.38 5.22Q432.52 5.17 432.80 5.11Q433.09 5.05 433.43 5.00Q433.78 4.94 434.13 4.91Q434.49 4.87 434.77 4.86L434.77 4.86Q434.77 5.21 434.83 5.71Q434.90 6.22 435.00 6.79Q435.11 7.36 435.25 7.95Q435.39 8.54 435.53 9.03Q435.67 9.52 435.80 9.88Q435.93 10.23 436.03 10.35ZM452.68 4.98L452.68 4.98Q452.94 5.10 453.22 5.27Q453.50 5.45 453.74 5.63Q453.98 5.81 454.14 5.98Q454.30 6.16 454.31 6.27L454.31 6.27Q454.08 6.22 453.84 6.20Q453.60 6.17 453.40 6.17L453.40 6.17Q452.77 6.17 452.15 6.48Q451.53 6.79 450.97 7.32Q450.41 7.85 449.93 8.57Q449.46 9.28 449.11 10.09Q448.77 10.91 448.57 11.77Q448.38 12.64 448.38 13.48L448.38 13.48Q448.38 14.57 448.74 15.11Q449.11 15.64 449.81 15.64L449.81 15.64Q450.14 15.64 450.53 15.51Q450.93 15.37 451.33 15.13Q451.74 14.90 452.13 14.56Q452.52 14.22 452.86 13.82L452.86 13.82Q453.35 13.23 453.74 12.48Q454.13 11.73 454.41 10.89Q454.68 10.05 454.83 9.16Q454.97 8.27 454.97 7.42L454.97 7.42Q454.97 7.08 454.96 6.85Q454.94 6.62 454.92 6.46Q454.90 6.30 454.89 6.20Q454.87 6.10 454.86 6.03L454.86 6.03Q455.03 6.12 455.23 6.24Q455.43 6.36 455.61 6.59Q455.78 6.82 455.90 7.20Q456.02 7.57 456.02 8.18L456.02 8.18Q456.02 9.16 455.79 10.10Q455.56 11.05 455.15 11.90Q454.73 12.75 454.17 13.50Q453.61 14.24 452.97 14.80L452.97 14.80Q452.13 15.54 451.18 15.95Q450.23 16.35 449.34 16.35L449.34 16.35Q448.06 16.35 447.38 15.53Q446.70 14.71 446.70 13.12L446.70 13.12Q446.70 12.26 446.89 11.31Q447.08 10.36 447.42 9.44Q447.76 8.51 448.24 7.68Q448.71 6.85 449.28 6.21Q449.85 5.57 450.50 5.19Q451.15 4.82 451.84 4.82L451.84 4.82Q452.06 4.82 452.26 4.85Q452.45 4.89 452.68 4.98ZM468.72 5.75L468.72 5.75Q468.10 6.58 467.60 7.57Q467.10 8.57 466.74 9.61Q466.38 10.65 466.19 11.67Q466.00 12.68 466.00 13.57L466.00 13.57Q466.00 14.66 466.33 15.15Q466.65 15.64 467.43 15.64L467.43 15.64Q468.34 15.64 469.03 15.00Q469.71 14.36 470.32 13.24L470.32 13.24Q470.71 12.52 470.99 11.65Q471.27 10.78 471.44 9.86Q471.62 8.95 471.70 8.02Q471.79 7.08 471.79 6.23L471.79 6.23Q471.79 5.68 471.77 5.43Q471.76 5.18 471.73 5.03L471.73 5.03Q471.77 5.03 471.94 5.05Q472.11 5.08 472.33 5.12Q472.54 5.17 472.76 5.24Q472.98 5.31 473.13 5.39L473.13 5.39Q473.06 6.45 472.87 7.59Q472.68 8.72 472.37 9.83Q472.07 10.93 471.66 11.96Q471.25 12.98 470.75 13.79L470.75 13.79Q470.01 14.99 469.08 15.67Q468.16 16.35 466.90 16.35L466.90 16.35Q465.61 16.35 464.90 15.60Q464.18 14.85 464.18 13.33L464.18 13.33Q464.18 12.45 464.38 11.33Q464.58 10.22 464.91 9.07Q465.23 7.91 465.67 6.81Q466.10 5.71 466.58 4.84L466.58 4.84Q466.82 4.86 467.14 4.94Q467.46 5.03 467.77 5.16Q468.08 5.29 468.34 5.45Q468.59 5.61 468.72 5.75ZM489.62 7.46L489.62 7.46Q489.62 8.13 489.32 8.73Q489.02 9.32 488.49 9.79Q487.96 10.26 487.24 10.58Q486.53 10.91 485.69 11.02L485.69 11.02Q485.90 11.65 486.20 12.31Q486.50 12.98 486.85 13.59Q487.20 14.21 487.58 14.73Q487.96 15.25 488.32 15.58L488.32 15.58Q488.25 15.72 488.12 15.86Q487.98 16.00 487.81 16.12Q487.63 16.24 487.45 16.32Q487.26 16.39 487.09 16.39L487.09 16.39Q486.78 16.39 486.50 16.10Q486.22 15.81 485.93 15.17Q485.65 14.53 485.33 13.52Q485.02 12.50 484.64 11.07L484.64 11.07Q484.48 11.07 484.33 11.07Q484.18 11.07 484.09 11.05L484.09 11.05Q483.99 10.99 483.88 10.85L483.88 10.85Q483.50 11.66 483.21 12.38Q482.92 13.09 482.69 13.76Q482.45 14.42 482.28 15.04Q482.10 15.67 481.98 16.31L481.98 16.31Q481.50 16.20 481.15 15.90Q480.80 15.61 480.49 15.08L480.49 15.08Q480.55 14.95 480.61 14.83Q480.68 14.71 480.77 14.50Q480.87 14.28 481.02 13.94Q481.17 13.61 481.41 13.05Q481.66 12.49 482.00 11.68Q482.34 10.86 482.83 9.70L482.83 9.70Q483.06 9.18 483.22 8.79Q483.38 8.40 483.50 8.04Q483.63 7.69 483.74 7.33Q483.84 6.97 483.95 6.51L483.95 6.51Q483.31 6.73 482.76 7.01Q482.20 7.28 481.84 7.59L481.84 7.59Q481.71 7.50 481.58 7.34Q481.45 7.17 481.33 6.96Q481.22 6.76 481.14 6.55Q481.05 6.34 481.04 6.17L481.04 6.17Q481.46 5.89 482.07 5.66Q482.68 5.42 483.36 5.24Q484.05 5.07 484.76 4.97Q485.48 4.87 486.09 4.87L486.09 4.87Q487.77 4.87 488.70 5.56Q489.62 6.26 489.62 7.46ZM486.04 6.02L486.21 6.29Q486.11 6.41 485.90 6.79Q485.69 7.17 485.42 7.69Q485.14 8.22 484.84 8.83Q484.54 9.45 484.26 10.05L484.26 10.05Q485.31 10.05 486.19 9.86Q487.07 9.66 487.72 9.30Q488.36 8.95 488.72 8.46Q489.08 7.98 489.08 7.39L489.08 7.39Q489.08 6.69 488.57 6.32Q488.07 5.95 487.02 5.95L487.02 5.95Q486.78 5.95 486.54 5.97Q486.30 5.99 486.04 6.02L486.04 6.02ZM512.32 14.38L512.32 14.38Q512.67 14.98 512.67 15.54L512.67 15.54Q512.67 15.67 512.64 15.77Q512.62 15.88 512.60 15.99L512.60 15.99Q512.36 15.96 512.10 15.95Q511.84 15.93 511.56 15.93L511.56 15.93Q511.22 15.93 510.88 15.95Q510.54 15.97 510.12 16.02Q509.70 16.06 509.18 16.13Q508.66 16.20 507.98 16.31L507.98 16.31Q507.65 16.20 507.33 15.87Q507.01 15.54 506.73 15.08L506.73 15.08Q506.87 14.77 507.08 14.31Q507.29 13.86 507.57 13.21Q507.85 12.56 508.19 11.68Q508.54 10.81 508.93 9.66L508.93 9.66Q509.18 8.90 509.36 8.33Q509.54 7.76 509.69 7.22Q509.84 6.68 509.98 6.09Q510.12 5.50 510.29 4.73L510.29 4.73Q510.85 4.84 511.26 5.14Q511.67 5.45 512.05 6.01L512.05 6.01Q511.94 6.19 511.76 6.59Q511.57 7 511.33 7.58Q511.08 8.16 510.79 8.90Q510.50 9.63 510.17 10.47L510.17 10.47Q509.87 11.30 509.57 12.03Q509.28 12.75 509.05 13.34Q508.82 13.93 508.68 14.35Q508.54 14.77 508.54 14.98L508.54 14.98Q508.76 14.97 508.94 14.95Q509.12 14.94 509.32 14.90Q509.52 14.87 509.75 14.82Q509.98 14.77 510.30 14.69L510.30 14.69Q510.58 14.62 510.82 14.57Q511.06 14.52 511.29 14.48Q511.52 14.45 511.76 14.43Q512.01 14.41 512.32 14.38ZM521.28 14.38L521.28 14.38Q521.28 13.87 521.44 13.07Q521.60 12.26 521.86 11.33Q522.12 10.40 522.45 9.43Q522.79 8.46 523.14 7.60Q523.49 6.75 523.82 6.10Q524.16 5.46 524.43 5.18L524.43 5.18Q524.57 5.19 524.80 5.29Q525.03 5.38 525.27 5.50Q525.50 5.63 525.70 5.78Q525.90 5.92 525.95 6.05L525.95 6.05Q525.55 6.41 525.15 7.15Q524.75 7.88 524.38 8.82Q524.01 9.76 523.68 10.80Q523.36 11.84 523.12 12.82Q522.89 13.80 522.75 14.64Q522.62 15.48 522.62 16.00L522.62 16.00Q522.62 16.24 522.66 16.30L522.66 16.30Q522.35 16.28 522.21 16.19Q522.07 16.10 522.00 16.00Q521.92 15.89 521.86 15.79Q521.79 15.68 521.67 15.62L521.67 15.62Q521.57 15.58 521.50 15.43Q521.43 15.27 521.38 15.09Q521.33 14.90 521.30 14.70Q521.28 14.50 521.28 14.38ZM538.13 9.34L538.13 9.34Q538.58 9.34 538.84 9.59Q539.10 9.84 539.10 10.29L539.10 10.29Q539.10 10.40 539.08 10.52Q539.07 10.64 539.03 10.72L539.03 10.72Q538.85 10.70 538.62 10.68Q538.40 10.65 538.09 10.65L538.09 10.65Q537.46 10.65 536.83 10.77Q536.20 10.88 535.63 10.95L535.63 10.95Q535.00 12.43 534.59 13.73Q534.18 15.04 533.96 16.31L533.96 16.31Q533.48 16.20 533.12 15.90Q532.76 15.61 532.43 15.08L532.43 15.08Q532.53 14.85 532.67 14.54Q532.81 14.22 533.01 13.74Q533.20 13.26 533.48 12.56Q533.75 11.87 534.13 10.91L534.13 10.91Q533.54 10.71 533.36 10.22L533.36 10.22Q533.43 10.15 533.75 10.06Q534.07 9.97 534.53 9.86L534.53 9.86Q534.74 9.31 534.90 8.88Q535.05 8.46 535.18 8.07Q535.30 7.69 535.41 7.32Q535.51 6.94 535.60 6.52L535.60 6.52L535.53 6.52Q535.00 6.52 534.67 6.27Q534.34 6.02 534.34 5.61L534.34 5.61Q534.34 5.50 534.37 5.35Q534.41 5.19 534.46 5.08L534.46 5.08Q534.73 5.12 534.99 5.14Q535.25 5.15 535.67 5.15L535.67 5.15Q536.55 5.15 537.32 5.10Q538.09 5.05 538.71 5.00Q539.34 4.94 539.78 4.89Q540.23 4.84 540.47 4.84L540.47 4.84Q540.79 4.84 541.04 5.18Q541.30 5.52 541.44 6.13L541.44 6.13Q540.99 6.09 540.71 6.08Q540.44 6.06 540.23 6.06L540.23 6.06Q539.52 6.06 538.92 6.13Q538.33 6.19 537.80 6.27L537.80 6.27Q537.71 6.40 537.61 6.59Q537.50 6.79 537.33 7.15Q537.17 7.50 536.91 8.08Q536.65 8.65 536.26 9.53L536.26 9.53Q536.80 9.45 537.30 9.39Q537.80 9.34 538.13 9.34ZM552.76 9.21L552.76 9.21Q553.22 9.21 553.48 9.46Q553.74 9.72 553.74 10.16L553.74 10.16Q553.74 10.28 553.72 10.39Q553.70 10.51 553.67 10.60L553.67 10.60Q553.49 10.57 553.27 10.55Q553.04 10.53 552.73 10.53L552.73 10.53Q552.13 10.53 551.52 10.63Q550.90 10.74 550.34 10.81L550.34 10.81Q550.02 11.55 549.75 12.24Q549.49 12.94 549.30 13.51Q549.11 14.08 549.00 14.50Q548.90 14.92 548.88 15.13L548.88 15.13Q550.02 14.90 551.17 14.73Q552.33 14.56 553.60 14.48L553.60 14.48Q553.76 14.71 553.86 14.99Q553.97 15.27 553.97 15.60L553.97 15.60Q553.97 15.68 553.97 15.78Q553.97 15.88 553.94 15.97L553.94 15.97Q553.55 15.96 553.11 15.95Q552.68 15.95 551.98 15.95L551.98 15.95Q551.52 15.95 551.10 15.97Q550.69 15.99 550.27 16.03Q549.85 16.07 549.38 16.14Q548.91 16.21 548.32 16.31L548.32 16.31Q547.68 16.06 547.08 15.08L547.08 15.08Q547.32 14.57 547.74 13.54Q548.17 12.52 548.83 10.79L548.83 10.79Q548.20 10.60 548.00 10.09L548.00 10.09Q548.07 10.02 548.41 9.92Q548.74 9.81 549.23 9.70L549.23 9.70Q549.44 9.16 549.59 8.75Q549.74 8.34 549.85 7.99Q549.96 7.63 550.05 7.29Q550.14 6.94 550.23 6.54L550.23 6.54Q549.74 6.51 549.46 6.27Q549.18 6.02 549.18 5.63L549.18 5.63Q549.18 5.52 549.21 5.36Q549.25 5.21 549.29 5.10L549.29 5.10Q549.57 5.14 549.83 5.15Q550.09 5.17 550.51 5.17L550.51 5.17Q551.39 5.17 552.16 5.12Q552.93 5.07 553.55 5.01Q554.18 4.96 554.62 4.91Q555.07 4.86 555.31 4.86L555.31 4.86Q555.63 4.86 555.88 5.19Q556.14 5.53 556.26 6.15L556.26 6.15Q555.83 6.10 555.56 6.09Q555.28 6.08 555.07 6.08L555.07 6.08Q554.30 6.08 553.67 6.15Q553.03 6.23 552.44 6.31L552.44 6.31Q552.36 6.44 552.25 6.64Q552.15 6.83 551.98 7.18Q551.81 7.53 551.57 8.06Q551.32 8.60 550.97 9.39L550.97 9.39Q551.50 9.31 551.97 9.26Q552.44 9.21 552.76 9.21Z"></path></g></svg>